<?xml version="1.0" encoding="UTF-8" standalone="no"?>
<!-- Created with Inkscape (http://www.inkscape.org/) -->

<svg
   width="50.783798mm"
   height="50.79987mm"
   viewBox="0 0 50.783798 50.79987"
   version="1.1"
   id="svg56179"
   inkscape:version="1.1.2 (1:1.1+202202050950+0a00cf5339)"
   sodipodi:docname="logo.svg"
   xmlns:inkscape="http://www.inkscape.org/namespaces/inkscape"
   xmlns:sodipodi="http://sodipodi.sourceforge.net/DTD/sodipodi-0.dtd"
   xmlns="http://www.w3.org/2000/svg"
   xmlns:svg="http://www.w3.org/2000/svg">
  <sodipodi:namedview
     id="namedview56181"
     pagecolor="#ffffff"
     bordercolor="#666666"
     borderopacity="1.0"
     inkscape:pageshadow="2"
     inkscape:pageopacity="0.0"
     inkscape:pagecheckerboard="0"
     inkscape:document-units="mm"
     showgrid="false"
     inkscape:zoom="0.56123737"
     inkscape:cx="317.15636"
     inkscape:cy="311.81102"
     inkscape:window-width="1872"
     inkscape:window-height="1051"
     inkscape:window-x="1968"
     inkscape:window-y="0"
     inkscape:window-maximized="1"
     inkscape:current-layer="layer1" />
  <defs
     id="defs56176" />
  <g
     inkscape:label="Layer 1"
     inkscape:groupmode="layer"
     id="layer1"
     transform="translate(-21.279527,-66.057456)">
    <path
       class="fil0"
       d="m 72.063326,91.919655 v -0.8616 c -0.0075,-0.1419 -0.0193,-0.2748 -0.036,-0.3948 l -0.0085,-0.0654 -0.0687,-0.0407 c -1.0799,-0.6397 -2.4695,-1.0128 -3.8633,-1.0425 -0.0311,-0.1835 -0.1965,-1.4758 -0.2226,-1.6584 1.3243,-0.3742 2.5837,-1.0914 3.4685,-2.0081 l 0.0497,-0.0493 -0.0105,-0.0614 c -0.0639,-0.5002 -0.2597,-1.1802 -0.428,-1.5992 l -0.0275,-0.0693 -0.0716,-0.0144 c -1.2044,-0.3403 -2.6596,-0.3331 -3.981799,0 -0.0917,-0.1657 -0.5711,-1.3494 -0.6428,-1.5281 1.1794,-0.7201 2.207699,-1.73 2.833199,-2.8208 l 0.0413,-0.06 -0.0413,-0.0804 c -0.1707,-0.4163 -0.5211,-1.022 -0.8269,-1.4132 l -0.0413,-0.0558 h -0.0578 c -1.259499,-0.0229 -2.648699,0.356 -3.877799,1.0168 -0.1213,-0.15 -0.9094,-1.1882 -1.0199,-1.3392 0.9483,-0.9811 1.6923,-2.234499 2.0066,-3.469899 l 0.0219,-0.0635 -0.0522,-0.055 c -0.284,-0.3743 -0.7856,-0.8958 -1.1578,-1.1716 l -0.0543,-0.0579 -0.0551,0.03 c -1.2354,0.3037 -2.4895,1.0368 -3.4762,1.9953 -0.157,-0.1206 -1.2044,-0.9394 -1.3448,-1.0495 0.653,-1.1631 1.0403,-2.528 1.0403,-3.7772 v -0.1707 l -0.0557,-0.0346 c -0.375,-0.2949 -0.9846,-0.6449 -1.42,-0.8297 l -0.0663,-0.03 -0.0635,0.0321 c -1.0996,0.6237 -2.111,1.6457 -2.8137,2.8243 -0.1764,-0.0737 -1.4443,-0.6043 -1.6098,-0.6717 0.1655,-0.6586 0.2646,-1.3448 0.2763,-2.0263 0,-0.6904 -0.09,-1.3554 -0.2763,-1.9654 l -0.0211,-0.0751 -0.0533,-0.0212 c -0.4318,-0.1887 -1.1046,-0.3725 -1.6013,-0.4279 l -0.0606,-0.0183 -0.0413,0.0444 c -0.9123,0.8848 -1.6288,2.1368 -2.0186,3.4675 -0.1863,-0.0187 -1.4898,-0.187 -1.6902,-0.2318 0,-1.3575 -0.3813,-2.7573 -1.0393,-3.8446 l -0.0384,-0.0571 -0.0614,-0.0187 c -0.2241,-0.0273 -0.505,-0.0414 -0.7894,-0.0423 h -0.0551 c -0.2846,8e-4 -0.5693,0.0149 -0.8008,0.0423 l -0.0681,0.0187 -0.0283,0.0571 c -0.6547,1.0873 -1.0294,2.4871 -1.0583,3.8573 -0.1785,0.0321 -1.5134,0.2004 -1.6993,0.2191 -0.381,-1.3307 -1.1032,-2.5922 -2.0091,-3.4735 l -0.0557,-0.0483 -0.0773,0.0099 c -0.4801,0.0737 -1.1638,0.2575 -1.5737,0.429 l -0.0656,0.0172 -0.0089,0.0766 c -0.1852,0.6159 -0.2702,1.2838 -0.2702,1.9851 -0.0102,0.6745 0.0931,1.3553 0.2593,2.0126 -0.1743,0.0695 -1.4443,0.6212 -1.6157,0.6854 -0.7155,-1.1786 -1.7392,-2.2087 -2.8272,-2.8243 l -0.0737,-0.0321 -0.0469,0.03 c -0.4424,0.1792 -1.0619,0.5348 -1.4277,0.8212 l -0.0618,0.0431 v 0.1831 c 0,1.2185 0.3754,2.5886 1.0471,3.7648 -0.1447,0.1101 -1.1215,0.8629 -1.2637,0.9758 -0.9754,-0.949 -2.2281,-1.6877 -3.4706,-2.0059 l -0.0557,-0.0109 -0.0593,0.037 c -0.3701,0.2921 -0.8763,0.7892 -1.1822,1.1723 l -0.0264,0.0543 0.0137,0.0533 c 0.3123,1.2347 1.0344,2.480699 1.9887,3.475199 -0.1115,0.1475 -0.9321,1.2573 -1.0446,1.3917 -1.203,-0.6664 -2.5968,-1.0527 -3.8612,-1.0343 h -0.0751 l -0.0448,0.056 c -0.2741,0.3747 -0.623,0.9727 -0.8171,1.4136 l -0.031,0.0656 0.031,0.0702 c 0.6174,1.0989 1.6556,2.1169 2.8381,2.8321 -0.0737,0.1771 -0.5623,1.3563 -0.6367,1.5193 -1.3395,-0.3287 -2.7968,-0.3386 -4.0019,0.0165 l -0.0653,0.0186 -0.0208,0.0607 c -0.1866,0.4171 -0.3761,1.0893 -0.4339,1.592 l -0.0127,0.0699 0.0374,0.0441 c 0.895,0.9015 2.1544,1.624 3.4745,2.0027 -0.0212,0.1764 -0.1866,1.4841 -0.2156,1.6677 -1.3931,0.0206 -2.794,0.3927 -3.8837,1.0349 l -0.0547,0.03 -0.0049,0.0751 c -0.0304,0.2442 -0.0392,0.5309 -0.0392,0.8234 0,0.2993 0.0088,0.5949 0.0392,0.8209 l 0.0049,0.0751 0.0547,0.0359 c 1.0897,0.6476 2.4906,1.0073 3.8837,1.0259 0.0194,0.186 0.2156,1.531 0.2304,1.7177 -1.3349,0.3955 -2.5827,1.1114 -3.4699,2.0161 l -0.0441,0.0572 0.0137,0.0765 c 0.0745,0.4871 0.2554,1.1795 0.4202,1.5909 l 0.036,0.0551 0.0592,0.0186 c 1.2203,0.3418 2.6699,0.3321 4.0037,0 0.0847,0.1668 0.5849,1.349805 0.6608,1.530305 -1.1734,0.7035 -2.2007,1.71979 -2.8297,2.82089 l -0.0282,0.0579 0.0282,0.0656 c 0.1881,0.4373 0.5373,1.0547 0.8294,1.4414 l 0.0431,0.0427 h 0.0666 c 1.2492,0.0317 2.6568,-0.3584 3.8612,-1.0337 0.1157,0.159 0.9331,1.2182 1.0417,1.3657 -0.9479,0.9735 -1.6771,2.227 -2.0009,3.4547 l -0.0177,0.0642 0.0406,0.0659 c 0.3009,0.3796 0.78,0.8633 1.1522,1.1639 l 0.0667,0.0434 0.0628,-0.0195 c 1.2174,-0.3118 2.4775,-1.0304 3.4671,-1.9843 0.1481,0.1111 1.2283,0.9317 1.3716,1.0432 -0.6488,1.1976 -1.0273,2.5667 -1.0273,3.8103 v 0.1302 l 0.0469,0.0468 c 0.3852,0.289 0.9804,0.6305 1.4326,0.8326 l 0.0695,0.0184 0.0579,-0.0324 c 1.0915,-0.6069 2.1255,-1.6472 2.8416,-2.8448 0.1672,0.0751 1.325,0.5443 1.4958,0.618 -0.1708,0.6558 -0.266,1.3286 -0.266,2.0002 0,0.6855 0.0952,1.3772 0.2804,1.9939 l 0.0219,0.0558 0.0526,0.0258 c 0.4381,0.1809 1.0908,0.3725 1.5875,0.4455 l 0.0751,0.0113 0.0483,-0.0463 c 0.9067,-0.8963 1.6267,-2.1497 1.9925,-3.4582 0.1859,0.0123 1.5247,0.2032 1.7142,0.2219 0.0303,1.3808 0.4113,2.781 1.0474,3.8661 l 0.0427,0.0572 0.0592,0.01 c 0.4809,0.0669 1.1878,0.0669 1.6288,0 l 0.0751,-0.01 0.0353,-0.0572 c 0.6573,-1.0851 1.0361,-2.4853 1.0584,-3.8661 0.1792,-0.0374 1.4495,-0.2096 1.6157,-0.2219 0.3746,1.3166 1.0879,2.5771 2.0196,3.4629 l 0.0413,0.0518 0.0744,-0.0102 c 0.4823,-0.0843 1.1748,-0.2558 1.5847,-0.4265 l 0.066,-0.036 0.0092,-0.0614 c 0.1672,-0.6188 0.2857,-1.3035 0.2857,-1.9883 -0.019,-0.678 -0.1185,-1.3645 -0.2857,-2.0203 0.1672,-0.0737 1.3938,-0.5986 1.5645,-0.6738 0.7084,1.1776 1.7449,2.2048 2.8265,2.8346 l 0.073,0.0239 0.0441,-0.0183 c 0.441,-0.1806 1.0591,-0.5384 1.4305,-0.8378 l 0.0752,-0.0423 v -0.1708 c 0,-1.2284 -0.3923,-2.5881 -1.0372,-3.7695 0.1496,-0.1117 1.1575,-0.8991 1.3035,-1.0096 0.9874,0.9542 2.2574,1.6813 3.459,2.0017 l 0.0917,0.0179 0.0441,-0.038 c 0.3715,-0.3003 0.8841,-0.8012 1.1624,-1.1794 l 0.0357,-0.0448 -0.0191,-0.0642 c -0.2949,-1.2354 -1.0227,-2.4881 -1.9815,-3.4759 0.11,-0.145 0.9232,-1.2192 1.0339,-1.3646 1.2175,0.678 2.612,1.0489 3.861199,1.0344 h 0.0773 l 0.0324,-0.0565 c 0.3059,-0.375 0.6477,-0.9991 0.8297,-1.4305 l 0.0191,-0.0634 -0.0303,-0.0604 c -0.5814,-1.0841 -1.615099,-2.09959 -2.783499,-2.83819 0.0494,-0.1709 0.543,-1.345705 0.6061,-1.511005 1.334199,0.33 2.775699,0.3431 3.999099,-0.009 l 0.0635,-0.0103 0.0222,-0.0682 c 0.1955,-0.4334 0.3719,-1.1011 0.441,-1.5985 v -0.0579 l -0.036,-0.0565 c -0.8819,-0.9116 -2.147,-1.6247 -3.4519,-2.0009 0.0261,-0.1778 0.1778,-1.4422 0.2113,-1.6192 1.3995,-0.0386 2.7947,-0.4045 3.8746,-1.0473 l 0.0687,-0.0352 0.0085,-0.064 c 0.0167,-0.1207 0.0285,-0.2569 0.036,-0.4008 z m -12.051999,10.308695 0.3768,0.5963 0.3454,0.6008 0.4649,-0.6008 0.1214,-0.1497 z m -18.6619,5.5221 c -0.0194,-0.0896 -0.0554,-0.1615 -0.1654,-0.2117 l -0.8019,-0.2956 -0.1813,0.5073 -0.0642,0.1852 -0.0053,0.0117 0.7309,0.2737 c 0.2004,0.0886 0.3941,-0.0896 0.4636,-0.2854 0.0236,-0.0536 0.0441,-0.1206 0.0236,-0.1852 z m 6.2727,2.1311 -0.248,-0.6113 -0.2508,-0.6615 -0.2176,0.6615 -0.2145,0.652 z m 8.6872,-2.6067 c 0,-0.1915 -0.049,-0.3623 -0.1401,-0.5276 -0.2649,-0.4936 -0.8935,-0.6528 -1.3832,-0.3715 -0.3454,0.1852 -0.5218,0.5368 -0.5218,0.8991 0.011,0.1655 0.0512,0.3507 0.1489,0.507 0.0275,0.0491 0.0607,0.1002 0.1101,0.1538 0.3076,0.3672 0.8498,0.4527 1.2665,0.2103 0.1146,-0.0568 0.206,-0.131 0.2797,-0.2103 0.1531,-0.1852 0.2399,-0.4336 0.2399,-0.6608 z m 6.8626,-6.24519 -2.3358,-1.286405 -0.2991,0.538105 2.8032,1.56459 1.0802,-1.935995 -0.4816,-0.2577 z m -30.8589,-1.604805 -2.7478,1.604805 c 0.0984,0.1922 0.2046,0.418 0.3249,0.60369 l 2.7535,-1.60899 c -0.1345,-0.242605 -0.2103,-0.372105 -0.3306,-0.599505 z m 1.7632,2.562595 -1.4884,1.2863 0.7585,-2.20489 c -0.1344,-0.1888 -0.1962,-0.3204 -0.3369,-0.494 l -2.6677,1.81019 c 0.1192,0.1789 0.2653,0.3443 0.3919,0.5296 l 1.6041,-1.1113 -0.7525,2.2214 c 0.1302,0.1468 0.2618,0.3715 0.4459,0.5211 l 2.4681,-2.1167 c -0.1366,-0.1464 -0.302,-0.2766 -0.423,-0.4417 z m 1.6316,2.4363 -1.6937,2.0098 -0.5278,-0.4576 1.7516,-1.9512 c -0.2777,-0.2571 -0.4893,-0.4887 -0.7581,-0.7277 l 0.3901,-0.3913 c 0.6668,0.6303 1.2538,1.119 1.9897,1.7117 l -0.3376,0.4311 c -0.2681,-0.2099 -0.5443,-0.4121 -0.8142,-0.6248 z m 1.9896,1.506 c 0.4336,0.2357 0.8573,0.4819 1.3314,0.7063 l 0.2844,-0.4706 c -0.6565,-0.3391 -1.2725,-0.7268 -1.8246,-1.1099 l -1.8112,2.6582 c 0.6869,0.4548 1.3145,0.8343 2.02,1.2418 l 0.2921,-0.4695 -1.4605,-0.8605 0.4932,-0.6933 0.9673,0.5818 0.2819,-0.4522 c -0.3108,-0.1708 -0.6346,-0.368 -0.9736,-0.5754 z m 4.2528,1.8207 v 0.1743 c -0.0491,0.4265 -0.3383,0.8596 -0.8075,0.914 l 0.1086,1.4898 c -0.2176,-0.0497 -0.4635,-0.1221 -0.6956,-0.2205 l -0.0251,-1.4015 -0.6297,-0.2693 -0.5105,1.2369 c -0.2067,-0.0685 -0.4127,-0.1345 -0.6145,-0.2335 l 0.647,-1.505 0.0772,-0.1852 0.5264,-1.2418 1.4337,0.5532 c 0.3189,0.1139 0.4656,0.3975 0.49,0.6886 z m 2.7513,0.0314 -0.2325,1.9445 -0.9341,-2.1326 c -0.2191,-0.0426 -0.3556,-0.0991 -0.5761,-0.1344 l -0.7331,3.1447 c 0.2268,0.0607 0.4445,0.085 0.678,0.1256 l 0.3927,-1.9315 0.9468,2.152 c 0.2149,0.0324 0.4583,0.0999 0.7084,0.0935 l 0.3507,-3.248 c -0.1842,-0.0102 -0.4025,0.0194 -0.6008,-0.0138 z m 3.3394,1.4884 0.6925,1.6799 c -0.2265,0.009 -0.4374,0.0324 -0.6399,0.0558 l -0.2138,-0.543 -1.3847,0.0385 -0.1587,0.568 c -0.2212,-0.0194 -0.4276,-0.0258 -0.6474,-0.0258 l 0.5973,-1.7734 0.4251,-1.3455 0.0208,-0.0427 0.7059,-0.0317 0.036,0.0853 z m 3.0568,-1.9721 c -0.931,0.2039 -1.6475,0.3736 -2.571,0.5169 l 0.0857,0.5362 c 0.3415,-0.054 0.6537,-0.0945 1.0142,-0.1401 l 0.4657,2.5831 0.6854,-0.1295 -0.5559,-2.5756 c 0.3527,-0.0875 0.6773,-0.1764 1.028,-0.2582 z m 0.7578,-0.2698 1.059,3.0233 c 0.206,-0.0717 0.4272,-0.1344 0.6361,-0.2255 l -1.0273,-3.0095 c -0.2819,0.0959 -0.4114,0.1344 -0.6678,0.2117 z m 4.814,-0.5493 c 0.1358,0.2384 0.2021,0.514 0.2131,0.7958 0,0.2198 -0.047,0.4453 -0.138,0.6499 -0.1488,0.2963 -0.3686,0.5613 -0.6752,0.7383 -0.7468,0.4365 -1.7127,0.1757 -2.166,-0.5922 -0.0159,-0.0441 -0.036,-0.0925 -0.0664,-0.1461 -0.091,-0.2046 -0.1351,-0.4301 -0.1541,-0.6499 0.019,-0.5658 0.2949,-1.088 0.8018,-1.3815 0.7585,-0.4299 1.7378,-0.1728 2.1848,0.5857 z m 1.1751,-3.0043 1.3229,1.4263 -2.2207,-0.6551 c -0.1849,0.1404 -0.3087,0.1895 -0.472,0.332 l 1.9325,2.5978 c 0.1647,-0.1284 0.3355,-0.2847 0.49,-0.4163 l -1.1727,-1.5628 2.2427,0.6752 c 0.1545,-0.1336 0.3742,-0.2843 0.5256,-0.4744 l -2.237,-2.3654 c -0.1192,0.1295 -0.2571,0.2996 -0.4113,0.4427 z m 1.8052,-1.9744 3.1802,1.0445 c -0.0744,0.0942 -0.1337,0.1845 -0.201,0.2798 -0.0551,0.0716 -0.1214,0.1439 -0.1655,0.237 l -0.5567,-0.2006 -0.8682,1.0843 0.3172,0.4971 c -0.1298,0.1475 -0.2759,0.3073 -0.441,0.4706 l -1.2598,-2.0884 -0.4656,-0.7698 z m -11.8872,-27.568594 c 0.3474,0.0166 0.6699,0.0554 0.9951,0.1013 l -0.1711,-0.6657 -0.2148,-0.6862 -0.3224,0.6862 z m -7.1533,0.2963 c 0.0427,0.5666 0.545,0.9797 1.0901,0.9331 0.5379,-0.0554 0.9398,-0.485 0.9398,-1.0262 0.0194,-0.0268 0,-0.0579 0,-0.0931 -0.047,-0.5694 -0.537,-0.9691 -1.1046,-0.9155 -0.5394,0.0399 -0.9454,0.4671 -0.9253,1.0086 z m 10.9079,-0.2963 0.7158,0.2311 c 0.1957,0.0561 0.4547,-0.2509 0.4547,-0.5179 0,-0.1274 -0.0441,-0.2402 -0.2149,-0.2776 -0.2645,-0.1023 -0.4459,-0.1475 -0.7344,-0.2205 l -0.1475,0.4981 z m -14.3295,1.0612 0.0882,0.1502 0.3238,0.5599 0.6717,-0.3528 c 0.0628,-0.0314 0.0984,-0.11 0.1104,-0.2071 0.0131,-0.3033 -0.206,-0.714 -0.5245,-0.5224 -0.248,0.1298 -0.399,0.2191 -0.6696,0.3722 z m 2.8388,-0.7084 v -0.1496 c -0.0166,-0.8234 0.6145,-1.5011 1.4439,-1.5674 0.8767,-0.0854 1.6552,0.5588 1.729,1.4401 v 0.1273 c 0,0.8223 -0.6209,1.5254 -1.4644,1.6027 -0.8516,0.0751 -1.6341,-0.5662 -1.7085,-1.4531 z m 7.2069,0.7309 c -0.2671,-0.0028 -0.3905,-0.0028 -0.6523,-0.0028 l 0.793,-1.6453 0.7194,-1.4951 0.7136,0.0737 0.375,1.4214 0.5183,1.9099 c -0.2399,-0.0448 -0.4265,-0.0811 -0.6534,-0.0942 l -0.1845,-0.5987 c -0.4713,-0.073 -0.8971,-0.0959 -1.3342,-0.1146 z m 3.8449,0.5878 c -0.2565,-0.0745 -0.4459,-0.1062 -0.7278,-0.1867 l 0.5197,-1.7716 0.3796,-1.2629 c 0.5478,0.1358 1.0685,0.3136 1.5896,0.4833 0.2949,0.0906 0.4526,0.4243 0.4829,0.7796 0.0194,0.4826 -0.2205,1.0068 -0.7076,1.1165 l 0.1894,1.4281 c -0.2286,-0.0949 -0.3976,-0.1658 -0.6509,-0.2653 l -0.1654,-1.2481 -0.611,-0.1877 z m -14.5919,-0.4601 -0.1771,-0.3182 c 0.4656,-0.2956 0.9666,-0.5521 1.4495,-0.8103 0.5684,-0.3136 1.3706,0.4463 1.3141,1.1285 -0.0106,0.1203 -0.0441,0.2293 -0.1153,0.3401 l 1.1624,0.8456 c -0.2191,0.1027 -0.3849,0.190199 -0.6463,0.304099 l -1.0181,-0.744299 -0.5617,0.3009 0.598,0.988799 c -0.2314,0.1475 -0.3722,0.2392 -0.6428,0.3969 z m 8.1068,-2.6313 0.2812,2.6052 0.684,-0.0716 -0.2678,-2.5862 1.0347,-0.0635 -0.0391,-0.5807 c -1.1557,0.0667 -1.6316,0.1133 -2.7753,0.284 l 0.0762,0.5511 z m 10.002,4.568099 0.6917,-1.332099 1.8666,-0.8675 c -0.1965,-0.1411 -0.4089,-0.2395 -0.6057,-0.369 l -1.2859,0.5856 -0.2371,-1.3959 c -0.2684,-0.1274 -0.4296,-0.1835 -0.7094,-0.2963 l 0.3739,2.0305 -0.6925,1.315899 z m -7.9404,19.4331 c 2.7834,0 5.0462,-2.2593 5.0462,-5.0422 0,-2.783 -2.2628,-5.045 -5.0462,-5.0553 -2.7823,0 -5.0429,2.2723 -5.0429,5.0553 0,2.7829 2.2606,5.0422 5.0429,5.0422 z m 0,-0.4919 c -2.5026,0 -4.5469,-2.0533 -4.5469,-4.5503 0,-2.5149 2.0443,-4.5579 4.5469,-4.5579 2.5189,0 4.5449,2.043 4.5449,4.5579 0,2.508 -2.0363,4.5503 -4.5449,4.5503 z m 12.645,0.4354 c 0.2092,0.1357 0.4519,0.3004 0.6724,0.2239 0.1496,-0.0454 0.2783,-0.2094 0.3609,-0.505 0.9867,-3.3452 0.9867,-6.2025 0,-9.5078 -0.0607,-0.2074 -0.157,-0.4217 -0.3306,-0.4991 -0.1757,-0.0631 -0.3968,0.0093 -0.7133,0.2239 l -6.4636,4.3949 c -0.2501,0.1681 -0.3775,0.3975 -0.3775,0.6346 0,0.2356 0.1274,0.465 0.3775,0.6304 z m -1.4252,-13.9871 c 0.0084,-0.1336 -0.0738,-0.3025 -0.2611,-0.4867 -2.401,-2.5403 -4.8673,-3.9609 -8.2497,-4.7652 -0.1901,-0.0494 -0.4099,-0.0942 -0.5567,0.0353 -0.1513,0.1213 -0.1947,0.3556 -0.1644,0.7062 l 0.5574,7.8253 c 0.0177,0.2965 0.1514,0.5317 0.3493,0.6508 0.2169,0.123 0.4766,0.1002 0.7461,-0.0296 l 7.0474,-3.4014 c 0.2258,-0.1095 0.483,-0.229 0.5317,-0.4699 0,-0.0151 0.0084,-0.0344 0,-0.0648 z m -22.4088,0.1248 c 0.0296,0.2356 0.2977,0.3557 0.532,0.4657 l 7.0382,3.4193 c 0.2798,0.1337 0.5401,0.1337 0.7525,0.0231 0.1983,-0.1296 0.3267,-0.3549 0.3443,-0.6542 l 0.5687,-7.8079 c 0.031,-0.3775 -0.0222,-0.5987 -0.158,-0.7144 -0.1486,-0.1281 -0.3691,-0.0921 -0.5807,-0.0529 -3.3736,0.8114 -5.8318,2.2369 -8.255,4.7638 -0.1958,0.2212 -0.2868,0.4073 -0.242,0.5575 z m -1.4133,3.8502 c -0.23,-0.1489 -0.4748,-0.3186 -0.6752,-0.2297 -0.1633,0.0492 -0.2825,0.2204 -0.3679,0.4981 -0.9783,3.3572 -0.9783,6.2035 0,9.517 0.0663,0.2157 0.1407,0.4307 0.3369,0.4851 0.1605,0.0668 0.3976,0 0.7062,-0.2129 l 6.4591,-4.4001 c 0.2395,-0.1612 0.3855,-0.3907 0.3855,-0.6208 0,-0.2501 -0.146,-0.4699 -0.3855,-0.6383 z m 1.5152,14.003605 c 0,0.1337 0.091,0.3004 0.2611,0.4775 2.4239,2.54919 4.8782,3.96809 8.249,4.75909 0.2155,0.0655 0.4272,0.0976 0.5768,-0.0195 0.1524,-0.1135 0.1958,-0.3478 0.17,-0.7164 0,-0.0117 -0.5732,-7.824495 -0.5732,-7.824495 -0.024,-0.2963 -0.1362,-0.5223 -0.3437,-0.6415 -0.2102,-0.1233 -0.472,-0.1233 -0.7531,0.0048 l -7.0309,3.4224 c -0.2452,0.114405 -0.5112,0.243205 -0.5479,0.473305 0,0.0152 -0.0081,0.0448 -0.0081,0.0648 z m 13.2204,5.10359 c 0.1192,0.0938 0.3147,0.1213 0.6152,0.0461 3.3623,-0.8068 5.8283,-2.2317 8.2317,-4.75349 0.1433,-0.166 0.3003,-0.3369 0.2537,-0.5264 -0.0441,-0.1819 -0.1986,-0.346605 -0.5267,-0.500905 l -7.0492,-3.421 c -0.2674,-0.1261 -0.5271,-0.1261 -0.7423,-0.0138 -0.2067,0.1309 -0.3333,0.3528 -0.3527,0.6622 l -0.5698,7.803095 c -0.0053,0.2558 -0.0356,0.5471 0.1401,0.7042 z m -14.8767,-28.880895 2.0864,2.3241 c 0.2914,0.3132 0.6124,0.2748 1.034,-0.0547 2.6363,-2.0683 6.0187,-3.291399 9.623,-3.291399 3.6082,0 6.9928,1.218799 9.6545,3.291399 0.4163,0.3073 0.7281,0.3679 1.0336,0.0547 l 2.0878,-2.3241 c 0.2363,-0.257199 0.2363,-0.610999 -0.2166,-0.990299 -3.4996,-2.7245 -7.819,-4.4062 -12.5677,-4.4062 -4.7206,0 -9.1017,1.6817 -12.5388,4.4186 -0.4498,0.3669 -0.4297,0.7207 -0.1962,0.977899 z m 31.1595,21.3699 -3.0071,-1.0266 c -0.157,-0.0586 -0.5676,-0.0586 -0.7825,0.4705 -2.4281,5.823795 -8.081,9.808995 -14.6265,9.808995 -6.5539,0 -12.3109,-4.077 -14.635,-9.899895 -0.1728,-0.4382 -0.5951,-0.4382 -0.7549,-0.3796 l -2.9905,1.0266 c -0.3246,0.1171 -0.5193,0.4051 -0.3492,0.8206 2.9372,7.495695 10.2414,12.787395 18.7296,12.787395 8.4857,0 15.8232,-5.3281 18.7703,-12.819095 0.1527,-0.3921 -0.0318,-0.6718 -0.3542,-0.7889 z m -37.2869,-1.6054 2.9994,-0.8709 c 0.2811,-0.0827 0.5125,-0.3776 0.4903,-0.7442 -1.077,-5.5866 0.2911,-10.1155 3.5659,-13.7461 0.3313,-0.2356 0.3665,-0.7207 0.0501,-1.0519 l -2.1805,-2.1918 c -0.2117,-0.2424 -0.5969,-0.2424 -0.9275,0.0945 -4.179,4.3986 -6.2893,11.1489 -4.7413,18.0501 0.0854,0.3307 0.3475,0.574 0.7436,0.4603 z m 33.8113,-18.5404 c -0.2942,-0.3609 -0.7824,-0.3069 -0.9232,-0.0557 l -2.1731,2.183 c -0.3182,0.3312 -0.2872,0.8163 0.0427,1.0519 3.2798,3.6306 4.6503,8.1499 3.5747,13.7461 -0.024,0.3666 0.2067,0.6615 0.4932,0.7442 l 3.0042,0.8709 c 0.4004,0.1137 0.6558,-0.1296 0.7416,-0.472 1.545799,-6.8895 -0.5708,-13.6626 -4.7601,-18.0684 z m -14.884,16.6215 c -1.6404,0 -3.005,-1.3643 -3.005,-3.0265 0,-1.3171 0.8544,-2.4726 2.1216,-2.8571 0.0124,-0.1364 0.0476,-0.822 0.0476,-0.822 h 1.5262 c 0,0 0.0363,0.6311 0.0529,0.7669 1.3222,0.33 2.2828,1.5313 2.2828,2.9122 0,1.6622 -1.3656,3.0265 -3.0261,3.0265 z"
       id="path7"
       style="clip-rule:evenodd;fill:#cf005d;fill-rule:evenodd;stroke-width:0.0001;image-rendering:optimizeQuality;shape-rendering:geometricPrecision;text-rendering:geometricPrecision" />
  </g>
</svg>
